<?xml version="1.0" encoding="UTF-8" standalone="no"?>
<!-- Created with Inkscape (http://www.inkscape.org/) -->

<svg
   width="170.87199mm"
   height="170.87199mm"
   viewBox="0 0 170.87199 170.872"
   version="1.1"
   id="svg1"
   xml:space="preserve"
   inkscape:version="1.4.3 (0d15f75042, 2025-12-25)"
   sodipodi:docname="mnemosynce.svg"
   xmlns:inkscape="http://www.inkscape.org/namespaces/inkscape"
   xmlns:sodipodi="http://sodipodi.sourceforge.net/DTD/sodipodi-0.dtd"
   xmlns="http://www.w3.org/2000/svg"
   xmlns:svg="http://www.w3.org/2000/svg"><sodipodi:namedview
     id="namedview1"
     pagecolor="#ffffff"
     bordercolor="#000000"
     borderopacity="0.25"
     inkscape:showpageshadow="2"
     inkscape:pageopacity="0.0"
     inkscape:pagecheckerboard="0"
     inkscape:deskcolor="#d1d1d1"
     inkscape:document-units="mm"
     showgrid="false"
     inkscape:zoom="0.73851712"
     inkscape:cx="262.68856"
     inkscape:cy="316.17412"
     inkscape:window-width="1920"
     inkscape:window-height="1043"
     inkscape:window-x="0"
     inkscape:window-y="0"
     inkscape:window-maximized="1"
     inkscape:current-layer="layer1" /><defs
     id="defs1" /><g
     inkscape:label="Layer 1"
     inkscape:groupmode="layer"
     id="layer1"
     transform="translate(-35.542394,-65.01908)"><path
       style="fill:#000000;stroke-width:0.957434"
       d="m 84.424262,231.79324 c -0.928844,-0.23728 -2.125295,-0.60761 -2.658779,-0.82296 -0.533484,-0.21534 -1.825422,-0.9933 -2.870973,-1.7288 -1.04555,-0.7355 -2.329986,-1.87784 -2.854301,-2.53854 -0.524316,-0.66069 -1.323387,-2.00964 -1.775713,-2.99765 -0.452327,-0.98801 -0.990116,-2.69225 -1.195088,-3.78721 -0.204972,-1.09496 -0.289379,-2.97878 -0.187573,-4.18628 0.101808,-1.2075 0.50265,-3.21471 0.890761,-4.46047 0.388111,-1.24575 1.494727,-3.44965 2.459147,-4.89754 0.96442,-1.44789 2.883047,-3.75202 4.263615,-5.12029 1.380569,-1.36828 4.805254,-4.31647 7.610414,-6.55153 2.805158,-2.23507 5.146115,-4.17892 5.202126,-4.31966 0.05601,-0.14074 -0.609526,-2.43629 -1.478972,-5.10123 -0.869446,-2.66495 -2.252345,-6.36528 -3.073108,-8.22297 -0.820764,-1.85769 -1.693954,-3.58098 -1.940423,-3.82954 -0.374107,-0.37727 -1.222272,-0.32459 -5.135006,0.31894 -3.158116,0.51941 -6.174186,0.77699 -9.24666,0.78967 -4.093656,0.017 -4.740258,-0.0628 -6.325276,-0.77939 -0.971023,-0.43902 -2.369311,-1.45328 -3.107307,-2.25391 -0.88183,-0.95667 -1.531762,-2.1091 -1.895915,-3.36174 -0.503564,-1.7322 -0.507259,-2.11196 -0.04052,-4.16356 0.513582,-2.2575 0.513582,-2.2575 -1.026699,-3.5879 -0.847155,-0.73173 -1.749033,-1.83001 -2.004171,-2.44064 -0.393536,-0.94187 -0.393308,-1.31511 0.0015,-2.46107 0.465395,-1.35081 0.465395,-1.35081 -0.663476,-2.01686 -0.628231,-0.37067 -1.225538,-1.05121 -1.346843,-1.53453 -0.119885,-0.47765 -0.113858,-1.28364 0.01339,-1.79107 0.127251,-0.50743 0.258428,-1.29656 0.291504,-1.75361 0.05389,-0.74467 -0.150391,-0.88657 -1.966431,-1.36599 -1.114614,-0.29425 -2.667033,-0.89514 -3.449822,-1.33533 -0.820235,-0.46124 -1.643094,-1.26361 -1.942129,-1.89379 -0.285381,-0.60139 -0.518875,-1.46577 -0.518875,-1.92084 0,-0.45507 0.1733,-1.34406 0.385112,-1.97552 0.211812,-0.63148 1.572589,-3.96 3.023947,-7.39672 1.451358,-3.43673 2.877124,-7.16054 3.168369,-8.27516 0.437577,-1.67464 0.464664,-2.45833 0.155981,-4.51288 -0.205455,-1.36747 -0.272569,-3.41937 -0.149143,-4.55978 0.123425,-1.1404 0.525127,-3.38676 0.892669,-4.9919 0.668259,-2.91843 0.668259,-2.91843 -0.500876,-4.74609 -0.643024,-1.0052 -1.549822,-2.73212 -2.015107,-3.83758 -0.465284,-1.10547 -1.112759,-2.997536 -1.438833,-4.204595 -0.39022,-1.444521 -0.597432,-3.464567 -0.606236,-5.910029 -0.01056,-2.933278 0.149078,-4.248627 0.75837,-6.248588 0.42446,-1.393266 1.319887,-3.520941 1.989837,-4.728167 0.692155,-1.247239 2.320908,-3.294115 3.772267,-4.74066 1.927126,-1.920735 3.300458,-2.927076 5.594029,-4.099153 1.671919,-0.854397 3.951809,-1.833072 5.066421,-2.174834 1.542934,-0.473092 3.11475,-0.620976 6.58635,-0.619679 3.29018,0.0012 5.171068,0.167156 6.755229,0.595922 1.207498,0.326818 3.345356,1.060255 4.750798,1.62986 2.555348,1.035645 2.555348,1.035645 5.910826,-0.04265 1.845512,-0.593062 4.495423,-1.298402 5.888689,-1.567421 1.393267,-0.26902 4.433122,-0.487809 6.755222,-0.486199 2.32211,0.0016 5.52767,0.231397 7.12346,0.510639 1.5958,0.279242 4.27914,0.957922 5.96299,1.508177 1.68385,0.550256 4.11127,1.529099 5.39427,2.175208 1.283,0.64611 3.76741,2.132525 5.5209,3.303148 1.7535,1.170622 4.77708,3.682414 6.71908,5.581759 3.5309,3.453354 3.5309,3.453354 6.24859,3.495643 1.49473,0.02326 4.0288,0.03191 5.63127,0.01923 2.91359,-0.02305 2.91359,-0.02305 3.06595,-1.860273 0.0838,-1.010467 0.34921,-2.074416 0.58981,-2.36433 0.36936,-0.445044 1.47469,-0.527117 7.099,-0.527117 6.02462,0 6.71497,0.05906 7.22051,0.617678 0.36846,0.407137 0.55899,1.213042 0.55899,2.36433 0,1.746653 0,1.746653 2.34844,1.746653 1.29164,0 2.73922,0.17805 3.21684,0.395667 0.47762,0.217617 0.96004,0.7608 1.07204,1.207072 0.11201,0.446274 0.0384,1.174174 -0.16366,1.617557 -0.34098,0.748374 -0.58008,0.813162 -3.33604,0.903938 -2.96874,0.09779 -2.96874,0.09779 -3.05781,1.617711 -0.049,0.83596 -0.16291,1.8501 -0.25316,2.253646 -0.10272,0.459266 -0.57477,0.865745 -1.26198,1.086677 -0.63024,0.202616 -3.57461,0.321696 -6.91251,0.279565 -4.98514,-0.06292 -5.89745,-0.156255 -6.39517,-0.654245 -0.37534,-0.375545 -0.63262,-1.30078 -0.72788,-2.617652 -0.14732,-2.036798 -0.14732,-2.036798 -6.37752,-2.036798 -3.4266,0 -6.48619,-0.137252 -6.79907,-0.305005 -0.31289,-0.167753 -2.2408,-1.968097 -4.28426,-4.000764 -2.04345,-2.032667 -4.85532,-4.458262 -6.24859,-5.390209 -1.39327,-0.931947 -3.59716,-2.228359 -4.89753,-2.880914 -1.30039,-0.652556 -3.42829,-1.568159 -4.72866,-2.034673 -1.30039,-0.466515 -3.65627,-1.116126 -5.23531,-1.443579 -1.83811,-0.381181 -4.32913,-0.592013 -6.92411,-0.586036 -2.50837,0.0057 -5.07848,0.228894 -6.743412,0.585411 -1.479656,0.316842 -3.139338,0.75931 -3.688182,0.983261 -0.997899,0.407185 -0.997899,0.407185 0.684034,1.641838 0.925063,0.679059 2.92818,2.532772 4.45137,4.119363 1.52318,1.586592 3.66011,4.24113 4.7487,5.898975 1.0886,1.657845 2.45449,4.155785 3.03532,5.550977 0.58082,1.395191 1.31062,3.574656 1.62178,4.843254 0.34288,1.397935 0.57513,3.770131 0.58956,6.021921 0.0133,2.08088 -0.17812,4.5326 -0.4352,5.57306 -0.25245,1.02172 -0.89211,2.78084 -1.42147,3.90913 -0.59795,1.2745 -1.64886,2.70061 -2.77481,3.76549 -0.99678,0.94272 -2.56936,2.09765 -3.4946,2.5665 -0.92525,0.46886 -2.660589,1.04577 -3.85633,1.28203 -1.19574,0.23625 -2.230538,0.4692 -2.29955,0.51765 -0.06901,0.0485 0.264561,0.75364 0.741273,1.56709 0.476712,0.81345 1.468213,2.02238 2.203335,2.68652 0.946959,0.85552 1.876652,1.31965 3.189242,1.59213 1.01895,0.21154 2.2878,0.27895 2.81968,0.1498 0.53186,-0.12914 1.95497,-0.8317 3.16248,-1.56125 1.99706,-1.20659 2.36817,-1.31478 4.10703,-1.19735 1.35666,0.0916 2.31071,0.39322 3.2865,1.03896 0.7562,0.50044 1.7199,1.55568 2.14155,2.34499 0.64142,1.20072 0.76266,1.93161 0.7423,4.47497 -0.0194,2.4277 -0.20019,3.49036 -0.89761,5.27698 -0.48031,1.23041 -1.27059,2.86652 -1.7562,3.63577 -0.88293,1.39863 -0.88293,1.39863 0.24945,3.16705 0.62281,0.97263 1.97437,2.53722 3.00348,3.47689 1.02911,0.93965 2.9536,2.27729 4.27664,2.97253 1.32305,0.69524 3.43259,1.48172 4.68788,1.74773 1.25529,0.26601 3.27636,0.48628 4.49128,0.48951 1.2149,0.003 3.10243,-0.22686 4.1945,-0.51131 1.09207,-0.28445 2.89123,-0.99988 3.99813,-1.58986 1.1069,-0.58997 2.87154,-1.93168 3.92144,-2.98156 1.0613,-1.06131 2.3915,-2.86743 2.9958,-4.06765 0.59779,-1.18732 1.18721,-2.67669 1.3098,-3.30971 0.21155,-1.09242 0.18156,-1.13906 -0.58994,-0.91736 -0.44706,0.12846 -1.66977,0.39364 -2.71715,0.58928 -1.76112,0.32897 -1.9836,0.47809 -2.95881,1.9831 -0.57998,0.89506 -1.61602,2.12039 -2.3023,2.72296 -0.68627,0.60256 -2.09068,1.49091 -3.12088,1.97412 -1.64569,0.77189 -2.30458,0.87855 -5.4271,0.87855 -3.31548,0 -3.70083,-0.0724 -5.74194,-1.07923 -1.20338,-0.59358 -2.98341,-1.87192 -3.95565,-2.84077 -0.97223,-0.96884 -1.8588,-2.04855 -1.97014,-2.39935 -0.11134,-0.3508 0.0416,-1.01037 0.34,-1.4657 0.34753,-0.5304 0.8608,-0.82786 1.42847,-0.82786 0.58144,0 1.4331,0.51173 2.47745,1.48859 0.87528,0.81872 2.25897,1.84285 3.07488,2.27584 1.21731,0.646 1.99855,0.78745 4.35443,0.78838 2.10296,8.3e-4 3.16341,-0.1579 3.96414,-0.59335 0.60124,-0.32697 1.62719,-1.06336 2.27989,-1.63644 0.6527,-0.57307 1.18673,-1.15784 1.18673,-1.29947 0,-0.14163 -0.90381,-0.58706 -2.00846,-0.98983 -1.10465,-0.40278 -2.92058,-1.41798 -4.03541,-2.25601 -1.16355,-0.87467 -2.60866,-2.39481 -3.3926,-3.56876 -0.7511,-1.12479 -1.67103,-3.03381 -2.04429,-4.2423 -0.47774,-1.54672 -0.67428,-3.11164 -0.66387,-5.28593 0.01,-2.00265 0.21742,-3.67249 0.59108,-4.74892 0.31696,-0.91311 0.81876,-1.80945 1.11511,-1.99186 0.29633,-0.18242 0.93217,-0.23294 1.41297,-0.11227 0.48079,0.12067 0.96741,0.51318 1.08136,0.87222 0.11397,0.35906 -0.0462,1.52458 -0.35596,2.59006 -0.39225,1.34929 -0.51243,2.66293 -0.396,4.32837 0.0919,1.31513 0.51497,3.30198 0.94005,4.41523 0.54646,1.43108 1.32651,2.5777 2.66258,3.91376 1.34589,1.3459 2.46572,2.10521 3.89147,2.63866 1.10098,0.41193 2.92404,0.83508 4.05124,0.94034 1.37604,0.1285 2.76789,0.008 4.23597,-0.36878 1.2026,-0.30809 2.85174,-0.95 3.66475,-1.42645 0.81302,-0.47646 2.08295,-1.47103 2.82207,-2.21015 0.73913,-0.73913 1.77375,-2.25287 2.29916,-3.36386 0.52542,-1.11099 1.05859,-2.90985 1.18482,-3.99744 0.13643,-1.17553 0.0644,-2.77662 -0.1776,-3.94807 -0.22391,-1.08383 -0.77453,-2.6978 -1.2236,-3.58658 -0.44906,-0.88878 -1.45724,-2.24191 -2.24039,-3.00695 -0.78315,-0.76504 -2.38207,-1.84192 -3.55314,-2.39308 -1.38086,-0.64991 -2.8895,-1.06314 -4.29242,-1.17575 -1.49932,-0.12035 -2.89922,0.0172 -4.56135,0.44836 -1.75787,0.45593 -2.55067,0.52652 -2.96945,0.26437 -0.31422,-0.19669 -0.61835,-0.82856 -0.67587,-1.40415 -0.0921,-0.92157 0.0558,-1.12835 1.23864,-1.73179 0.73877,-0.37688 2.39183,-0.84795 3.67348,-1.0468 1.65387,-0.25661 3.01004,-0.25684 4.67218,-8e-4 1.38002,0.21257 3.35653,0.85552 4.81216,1.56537 1.58649,0.77367 3.13079,1.87583 4.31659,3.08073 1.1276,1.14575 2.29648,2.81194 3.00264,4.2801 0.66134,1.37498 1.31462,3.42451 1.52618,4.78806 0.26194,1.68823 0.2667,3.03004 0.0163,4.59747 -0.19449,1.2174 -0.58262,2.86256 -0.86254,3.6559 -0.2799,0.79335 -0.84441,1.9911 -1.25444,2.66168 -0.41003,0.67058 -1.45405,1.9792 -2.32006,2.90804 -1.40388,1.50574 -1.633,1.97884 -2.11379,4.36449 -0.29657,1.47162 -1.07647,3.80695 -1.7331,5.18962 -0.65661,1.38266 -1.95352,3.46861 -2.88199,4.63543 -0.94933,1.19306 -2.7102,2.81986 -4.02356,3.71723 -2.28355,1.56029 -2.33141,1.62296 -2.15465,2.82173 0.0994,0.67429 0.55179,2.36595 1.00527,3.7592 0.45348,1.39327 1.64454,3.97715 2.64681,5.74196 1.00226,1.7648 2.15873,3.96869 2.56994,4.89753 0.41119,0.92885 0.94484,2.60077 1.18586,3.71538 0.24104,1.11462 0.44134,3.01452 0.44511,4.22202 0.004,1.20749 -0.21777,3.14832 -0.49236,4.31293 -0.27458,1.16462 -0.86447,2.83653 -1.31087,3.71537 -0.4464,0.87885 -1.45579,2.32832 -2.2431,3.22106 -0.78731,0.89273 -5.35177,4.95501 -10.14325,9.02728 -4.79148,4.07228 -8.7964,7.54104 -8.89981,7.70837 -0.10342,0.16733 0.67064,0.37545 1.72014,0.46248 1.45531,0.12069 2.05518,0.33978 2.52758,0.92318 0.34068,0.42071 0.61941,0.983 0.61941,1.24952 0,0.26651 -0.37307,0.85765 -0.82905,1.31363 -0.80675,0.80675 -0.9657,0.82905 -5.91082,0.82905 -4.63143,0 -5.14164,-0.0598 -5.7573,-0.67553 -0.37153,-0.37153 -0.67552,-1.00044 -0.67552,-1.39756 0,-0.39712 0.24545,-2.715 0.54543,-5.15086 0.29999,-2.43585 0.75948,-4.77081 1.02108,-5.18879 0.31581,-0.5046 0.80539,-0.75997 1.457,-0.75997 0.53975,0 1.23856,0.25719 1.55288,0.57151 0.46265,0.46265 0.54012,1.01034 0.40669,2.87516 -0.14902,2.0828 -0.11262,2.26276 0.3797,1.87726 0.29949,-0.23451 2.07757,-1.71832 3.9513,-3.29736 1.87374,-1.57903 5.70744,-4.82302 8.51934,-7.20885 2.8119,-2.38584 5.64285,-4.92487 6.29099,-5.6423 0.64814,-0.71741 1.46838,-1.88121 1.82273,-2.58622 0.35437,-0.70499 0.83724,-2.10127 1.07307,-3.10281 0.25943,-1.10186 0.353,-2.76917 0.23694,-4.22202 -0.10549,-1.32057 -0.49223,-3.25939 -0.85942,-4.3085 -0.36719,-1.04911 -1.59826,-3.48099 -2.73571,-5.40418 -1.13745,-1.9232 -2.42961,-4.6403 -2.87146,-6.03801 -0.44186,-1.3977 -0.91029,-3.11121 -1.04097,-3.80778 -0.23504,-1.25292 -0.25076,-1.2637 -1.46512,-1.00521 -0.67513,0.14371 -3.08283,0.26129 -5.35043,0.26129 -4.12292,0 -4.12292,0 -3.93259,0.84441 0.10469,0.46442 0.48978,2.06034 0.85577,3.54649 0.36597,1.48616 1.26769,4.24589 2.00378,6.13275 0.7361,1.88685 2.24432,4.87544 3.35159,6.64129 1.10729,1.76586 2.01325,3.51705 2.01325,3.89154 0,0.37449 -0.24706,0.92794 -0.54901,1.2299 -0.33327,0.33326 -0.96374,0.50865 -1.60438,0.44633 -0.85344,-0.083 -1.29498,-0.45808 -2.3079,-1.96037 -0.6889,-1.02174 -2.02471,-3.41418 -2.96845,-5.31656 -0.94374,-1.90238 -2.24468,-5.07312 -2.89098,-7.0461 -0.6463,-1.97296 -1.42872,-5.01867 -1.73872,-6.76823 -0.56363,-3.18102 -0.56363,-3.18102 -2.62619,-4.19641 -1.13441,-0.55847 -2.92532,-1.69254 -3.97979,-2.52017 -1.05447,-0.82761 -2.53017,-2.28019 -3.27933,-3.22795 -0.74915,-0.94775 -1.50141,-1.97211 -1.67167,-2.27635 -0.2804,-0.50106 -0.43608,-0.48206 -1.6525,0.20161 -0.73861,0.41513 -2.01956,0.84751 -2.84656,0.96086 -1.1209,0.15364 -1.90049,0.0306 -3.0629,-0.48364 -1.10661,-0.48951 -1.6226,-0.94202 -1.77738,-1.55872 -0.11995,-0.47793 -0.12331,-1.24663 -0.008,-1.70823 0.12653,-0.50414 0.53124,-0.91972 1.01353,-1.04077 0.46165,-0.11587 1.25946,0.0346 1.87719,0.35404 0.6781,0.35066 1.43048,0.47733 2.04002,0.34345 0.53115,-0.11666 1.60069,-0.90096 2.37676,-1.7429 0.77606,-0.84194 1.94895,-2.69404 2.6064,-4.11578 0.86411,-1.86863 1.24064,-3.2143 1.35871,-4.85588 0.12396,-1.7233 0.0331,-2.4696 -0.37659,-3.09493 -0.29696,-0.45323 -1.01048,-0.9274 -1.58559,-1.05372 -0.81392,-0.17877 -1.32172,-0.0391 -2.29133,0.63054 -0.68513,0.47312 -1.85365,1.11671 -2.59673,1.43022 -0.85085,0.35897 -2.22638,0.5647 -3.71538,0.55571 -1.59303,-0.01 -3.0138,-0.25944 -4.35522,-0.76577 -1.459713,-0.55098 -2.552303,-1.31289 -4.095063,-2.85565 -1.522194,-1.52219 -2.302759,-2.63495 -2.822203,-4.02329 -0.39492,-1.05552 -0.718037,-2.11736 -0.718037,-2.35964 0,-0.24227 -0.645969,-0.63015 -1.435487,-0.86193 -0.789517,-0.23178 -2.171105,-0.88842 -3.070196,-1.45919 -0.89909,-0.57078 -2.239922,-1.83937 -2.979625,-2.8191 -0.739704,-0.97972 -1.638005,-2.55267 -1.996227,-3.49543 -0.390494,-1.0277 -0.651309,-2.55801 -0.651309,-3.8215 0,-2.10738 0,-2.10738 -4.137579,-2.10738 -3.805714,0 -4.296278,-0.0743 -6.116197,-0.92687 -1.08824,-0.50977 -2.684163,-1.45022 -3.546495,-2.08987 -0.862333,-0.63965 -1.871863,-1.62806 -2.243401,-2.19645 -0.371537,-0.568403 -0.832725,-1.033892 -1.024862,-1.034426 -0.192136,-5.34e-4 -0.757695,0.872986 -1.256797,1.941156 -0.499103,1.06817 -1.212216,2.66819 -1.584696,3.55561 -0.372481,0.88742 -1.09722,3.09132 -1.610532,4.89754 -0.865848,3.04673 -0.927686,3.6746 -0.855713,8.68824 0.07216,5.02689 0.01599,5.59283 -0.804601,8.10628 -0.485199,1.48615 -1.792792,4.82999 -2.905763,7.43075 -1.11297,2.60077 -2.234376,5.41262 -2.492012,6.24859 -0.436214,1.41539 -0.422614,1.55798 0.19775,2.0733 0.366399,0.30437 1.602882,0.71839 2.747741,0.92005 1.144859,0.20166 2.437745,0.60004 2.873082,0.88528 0.435336,0.28525 1.0396,0.99836 1.342809,1.5847 0.36042,0.69698 0.49368,1.5437 0.384897,2.44559 -0.09151,0.75874 -0.222439,1.60248 -0.290939,1.87499 -0.09584,0.38129 0.381422,0.54815 2.070902,0.72402 1.207498,0.1257 3.166076,0.54725 4.352397,0.93678 1.186321,0.38953 2.364264,0.88029 2.617652,1.09058 0.253387,0.2103 0.460704,0.79617 0.460704,1.30194 0,0.50576 -0.310678,1.20074 -0.690396,1.54437 -0.618395,0.55964 -0.838551,0.57979 -2.11101,0.19317 -0.781337,-0.23738 -1.897285,-0.5096 -2.479883,-0.6049 -0.582599,-0.0953 -1.38056,-9.6e-4 -1.773248,0.20881 -0.400202,0.21419 -0.713977,0.71423 -0.713977,1.13783 0,0.52079 0.376815,0.95864 1.212218,1.40852 0.666721,0.35906 1.502681,1.02209 1.857689,1.47341 0.384668,0.48903 0.645469,1.35245 0.645469,2.13693 0,0.72399 -0.227989,1.86199 -0.506642,2.5289 -0.278653,0.66692 -0.506074,1.61199 -0.505379,2.10017 6.94e-4,0.48817 0.30329,1.38296 0.672436,1.9884 0.369144,0.60546 1.156515,1.39597 1.749712,1.75671 0.593197,0.36076 1.868423,0.7546 2.833836,0.87521 0.965412,0.12063 3.179329,0.0362 4.919814,-0.1876 1.740485,-0.22381 5.292415,-0.76111 7.893179,-1.19401 2.600763,-0.43291 5.488624,-1.12323 6.417467,-1.53404 0.928844,-0.41083 2.524767,-1.31464 3.546496,-2.0085 1.021729,-0.69384 2.647907,-2.07755 3.61373,-3.07491 0.965823,-0.99735 2.105768,-2.25754 2.533212,-2.80041 0.427442,-0.54287 1.613127,-2.65871 2.634857,-4.70185 1.02173,-2.04316 2.12499,-3.87889 2.45168,-4.07939 0.44505,-0.27315 0.82618,-0.23485 1.51993,0.15273 0.58645,0.32763 0.96505,0.85333 1.03264,1.43382 0.0657,0.56451 -0.48364,2.16279 -1.4303,4.16122 -0.84537,1.78457 -2.21603,4.19622 -3.04592,5.3592 -0.82989,1.163 -2.558103,3.08547 -3.840479,4.27218 -1.282377,1.1867 -3.269416,2.68961 -4.415644,3.33981 -1.146228,0.65019 -2.325664,1.34488 -2.62097,1.54377 -0.478484,0.32225 -0.422039,0.62336 0.518604,2.76653 0.580538,1.3227 1.726178,4.12383 2.545864,6.22474 0.819687,2.1009 2.018013,5.64374 2.662945,7.87296 0.644932,2.22922 1.489259,5.58587 1.876282,7.45921 0.387022,1.87335 0.804902,4.49522 0.928621,5.82639 0.123719,1.33117 0.317113,2.41791 0.429757,2.41497 0.11265,-0.003 2.78869,-2.15511 5.94677,-4.78259 3.15807,-2.62748 8.12435,-6.78499 11.03619,-9.2389 5.29425,-4.46166 5.29425,-4.46166 3.05999,-4.64101 -1.61044,-0.12926 -2.35777,-0.34824 -2.67661,-0.78427 -0.24328,-0.33271 -0.44233,-0.9323 -0.44233,-1.33243 0,-0.40013 0.26599,-0.95884 0.59108,-1.24158 0.44711,-0.38887 1.84983,-0.56576 5.75889,-0.72628 5.16246,-0.21198 5.16866,-0.21134 5.99527,0.61526 0.4551,0.4551 0.82301,1.10035 0.81757,1.43389 -0.006,0.33354 -0.37245,2.72689 -0.81558,5.31855 -0.59342,3.47072 -0.96376,4.82771 -1.40571,5.15087 -0.33002,0.24131 -0.9274,0.43874 -1.32752,0.43874 -0.40013,0 -1.0003,-0.30144 -1.33372,-0.66986 -0.51143,-0.56512 -0.57035,-1.01986 -0.37687,-2.90839 0.22935,-2.23855 0.22935,-2.23855 -1.72216,-0.59675 -1.07333,0.90298 -3.48339,2.93373 -5.3557,4.51277 -1.8723,1.57903 -4.68591,3.92643 -6.25245,5.21644 -1.56653,1.29001 -7.33204,6.09098 -12.812212,10.66882 -5.48018,4.57784 -10.267949,8.48217 -10.639487,8.6763 -0.396494,0.20717 -0.98031,0.2378 -1.413406,0.0742 -0.405836,-0.15334 -0.899102,-0.58003 -1.096147,-0.94821 -0.197043,-0.36818 -0.244819,-0.9761 -0.106166,-1.3509 0.138653,-0.37482 2.45583,-2.52604 5.149284,-4.78049 2.778196,-2.32538 5.024339,-4.46892 5.191045,-4.95391 0.173939,-0.50603 0.138459,-2.49175 -0.08694,-4.86592 -0.209441,-2.20606 -0.544263,-4.77321 -0.744048,-5.70477 -0.199785,-0.93158 -0.464646,-1.69121 -0.588579,-1.68806 -0.123933,0.003 -1.669264,1.15875 -3.434068,2.56804 -1.764803,1.4093 -4.624709,3.85855 -6.355346,5.4428 -1.730637,1.58423 -3.898773,3.95147 -4.818081,5.26052 -0.952348,1.35609 -1.959958,3.3141 -2.342012,4.55105 -0.368798,1.19404 -0.670542,3.11532 -0.670542,4.26954 0,1.15421 0.22295,2.84932 0.495445,3.76691 0.272495,0.91759 0.972208,2.31664 1.554919,3.109 0.58271,0.79237 1.693963,1.87721 2.469451,2.41076 0.77549,0.53355 2.231261,1.21398 3.235047,1.51207 1.003787,0.2981 2.389441,0.542 3.079231,0.542 0.68979,0 2.220128,-0.30137 3.400751,-0.66969 1.194655,-0.3727 2.941105,-1.27528 3.938208,-2.03529 0.985391,-0.75108 4.388262,-3.60358 7.561943,-6.33887 3.17366,-2.73529 6.37863,-5.46724 7.12215,-6.07099 0.7435,-0.60374 1.60061,-1.09772 1.90467,-1.09772 0.30405,0 0.89063,0.23661 1.30351,0.52579 0.47202,0.33062 0.75067,0.87711 0.75067,1.4722 0,0.81749 -1.12401,1.91169 -8.2521,8.03317 -5.500288,4.72356 -9.020064,7.48908 -10.555047,8.2932 -1.266617,0.66353 -3.204812,1.37177 -4.307101,1.57388 -1.102289,0.20209 -2.54622,0.35453 -3.208735,0.33873 -0.662514,-0.0158 -1.964536,-0.22287 -2.893379,-0.46016 z M 98.365154,115.2391 c 0.954364,-0.28342 2.387886,-1.01044 3.185596,-1.6156 0.79771,-0.60517 1.92167,-1.8004 2.49767,-2.65608 0.57601,-0.85568 1.29797,-2.55378 1.60437,-3.77356 0.3064,-1.21977 0.55708,-3.37248 0.55708,-4.78378 0,-1.4113 -0.2387,-3.659948 -0.53047,-4.997002 -0.29177,-1.337054 -1.2744,-3.950933 -2.18361,-5.808621 -0.91904,-1.87776 -2.63129,-4.599298 -3.855916,-6.128798 -1.211533,-1.51315 -3.002775,-3.47648 -3.980539,-4.362955 -0.977763,-0.886475 -3.140461,-2.497766 -4.805996,-3.580646 -1.665535,-1.08288 -4.127585,-2.42653 -5.471223,-2.985888 -1.343639,-0.559358 -3.400763,-1.269167 -4.571389,-1.577354 -1.294434,-0.340782 -3.451863,-0.561772 -5.506025,-0.563995 -2.250706,-0.0024 -4.047869,0.194986 -5.386526,0.59172 -1.104901,0.327457 -2.852817,1.021975 -3.884257,1.543373 -1.03144,0.521399 -2.792337,1.623781 -3.913103,2.449738 -1.269685,0.935704 -2.637695,2.381667 -3.629441,3.836254 -0.875426,1.283983 -1.905264,3.23006 -2.288529,4.324616 -0.383265,1.094556 -0.783364,3.222454 -0.889108,4.728661 -0.133106,1.89593 -0.02237,3.558568 0.359919,5.403608 0.3037,1.465777 0.954115,3.560676 1.445367,4.65533 0.491252,1.094649 1.015406,1.947279 1.164787,1.894729 0.149382,-0.0525 1.129928,-1.843464 2.178991,-3.979806 1.723442,-3.509664 1.889367,-4.038364 1.720524,-5.482244 -0.102775,-0.878893 -0.05032,-2.436907 0.116552,-3.462253 0.16688,-1.025346 0.701026,-2.662138 1.186992,-3.637315 0.485966,-0.975178 1.655969,-2.560175 2.600006,-3.522216 1.034335,-1.054061 2.513498,-2.106868 3.722178,-2.649291 1.794125,-0.805155 2.3324,-0.88786 5.101743,-0.783868 2.419329,0.09085 3.454645,0.292773 4.736943,0.923881 0.902521,0.444193 2.176248,1.342925 2.830504,1.997181 0.654257,0.654257 1.582897,2.038662 2.063645,3.076455 0.601655,1.298796 0.912751,2.623807 0.998137,4.25123 0.109448,2.086027 0.0096,2.582271 -0.848054,4.215844 -0.55269,1.05268 -1.57895,2.314372 -2.378634,2.924311 -0.801264,0.611144 -2.168166,1.236138 -3.176433,1.452372 -0.973446,0.208767 -2.408204,0.283857 -3.18835,0.166867 -0.780146,-0.11699 -1.872527,-0.488852 -2.427514,-0.826359 -0.554987,-0.337508 -1.438609,-1.176811 -1.963607,-1.865118 -0.753571,-0.987983 -0.982724,-1.694059 -1.088397,-3.353629 -0.126561,-1.987607 -0.07236,-2.172197 0.994582,-3.38738 0.62064,-0.706871 1.626068,-1.493143 2.234284,-1.747272 0.608214,-0.254128 1.488556,-0.365997 1.956314,-0.248598 0.467757,0.1174 0.998452,0.489965 1.179321,0.827921 0.180868,0.337956 0.328851,0.931702 0.328851,1.319435 0,0.447924 -0.338674,0.849296 -0.928843,1.100799 -0.510865,0.217707 -1.194832,0.617987 -1.519927,0.889511 -0.325095,0.271525 -0.591083,0.781018 -0.591083,1.132208 0,0.35119 0.373074,1.0116 0.829052,1.467578 0.643173,0.643175 1.182175,0.829051 2.404066,0.829051 1.370693,0 1.738585,-0.164314 2.835871,-1.266605 0.79899,-0.802633 1.346463,-1.728746 1.494557,-2.528207 0.128535,-0.693881 0.06707,-1.880438 -0.1366,-2.636794 -0.203665,-0.756357 -0.90376,-1.965669 -1.555766,-2.687362 -0.652006,-0.721692 -1.860745,-1.570059 -2.686085,-1.88526 -1.065897,-0.40707 -2.071213,-0.521353 -3.470254,-0.394492 -1.0833,0.09823 -2.434129,0.4188 -3.001844,0.712376 -0.567716,0.293577 -1.510187,1.011754 -2.094383,1.59595 -0.584195,0.584195 -1.383061,1.69058 -1.775259,2.458633 -0.422112,0.826633 -0.775012,2.292311 -0.864848,3.591908 -0.116112,1.679722 0.01328,2.631835 0.550809,4.053138 0.386413,1.021728 1.393072,2.646332 2.237018,3.610229 0.940142,1.073766 2.236825,2.084821 3.347929,2.610451 0.997413,0.47186 2.653562,0.95665 3.680328,1.07733 1.071122,0.12589 2.816186,0.0403 4.094087,-0.20084 1.89268,-0.35712 2.559121,-0.69229 4.436666,-2.231281 1.386844,-1.136773 2.854007,-2.002451 3.940742,-2.325176 0.952221,-0.28278 2.208113,-0.514145 2.790869,-0.514145 0.582757,0 1.865778,0.239422 2.851159,0.532049 1.290908,0.383359 2.246413,0.98686 3.419025,2.159471 1.236306,1.236302 1.766052,2.102822 2.204256,3.605522 0.480429,1.64752 0.513549,2.2812 0.198167,3.79161 -0.208267,0.99741 -0.770732,2.32751 -1.249922,2.95576 -0.47919,0.62826 -1.281378,1.3484 -1.782639,1.60033 -0.501262,0.25192 -1.376676,0.54621 -1.945365,0.65397 -0.568688,0.10776 -1.632637,0.0614 -2.36433,-0.103 -0.873786,-0.19635 -1.75741,-0.75599 -2.574727,-1.63072 -0.742077,-0.79419 -1.338733,-1.83473 -1.478134,-2.57779 -0.150376,-0.80158 -0.07597,-1.54087 0.208604,-2.0726 0.2433,-0.45461 0.820109,-0.92137 1.2818,-1.03724 0.626531,-0.15725 0.996316,-0.017 1.457974,0.55317 0.340195,0.42013 0.618537,1.00104 0.618537,1.29093 0,0.28988 0.251545,0.80502 0.55899,1.14475 0.307445,0.33972 0.915416,0.61768 1.351046,0.61768 0.43563,0 1.096041,-0.30399 1.467578,-0.67553 0.45311,-0.45311 0.675523,-1.12587 0.675523,-2.04334 0,-0.7523 -0.224304,-1.80157 -0.498453,-2.33172 -0.27415,-0.53014 -1.014055,-1.28256 -1.644235,-1.67203 -0.684008,-0.42274 -1.713666,-0.70813 -2.554855,-0.70813 -0.774991,0 -1.998191,0.30054 -2.718221,0.66787 -0.72003,0.36733 -1.610215,1.09069 -1.978191,1.60747 -0.367974,0.51676 -0.849933,1.61135 -1.071018,2.4324 -0.229722,0.85312 -0.30715,2.15442 -0.180689,3.03675 0.121706,0.84917 0.530427,2.19404 0.908269,2.98861 0.377842,0.79457 1.194655,1.83189 1.815141,2.30516 0.620486,0.47327 1.858866,1.14599 2.751957,1.49494 0.924923,0.3614 2.505983,0.64126 3.673505,0.65026 1.127337,0.009 2.830548,-0.21609 3.784911,-0.4995 z M 162.54427,87.63576 c -0.0971,-3.124294 -0.0971,-3.124294 -3.89693,-3.219797 -3.79981,-0.0955 -3.79981,-0.0955 -3.79981,3.124294 0,3.219796 0,3.219796 3.89693,3.219796 3.89693,0 3.89693,0 3.79981,-3.124293 z m -25.88663,43.20834 c -0.20419,-0.24603 -0.46945,-1.50387 -0.58947,-2.7952 -0.17546,-1.88799 -0.1168,-2.43205 0.29949,-2.77754 0.3368,-0.27951 1.31272,-0.39451 2.79274,-0.32909 1.69326,0.0749 2.36679,0.24667 2.63385,0.67188 0.27415,0.4365 0.21217,0.73336 -0.26264,1.25802 -0.6085,0.67238 -0.60246,0.69392 0.28951,1.03306 0.50103,0.19049 1.28594,0.34635 1.74423,0.34635 0.4583,0 1.32946,-0.20732 1.93592,-0.46072 0.60645,-0.25339 1.50952,-0.94427 2.00683,-1.53528 0.49731,-0.59102 1.06815,-1.68346 1.26854,-2.42765 0.20039,-0.7442 0.5863,-1.43826 0.85759,-1.54236 0.27128,-0.1041 0.73545,0.0118 1.03148,0.25743 0.39557,0.32829 0.49478,0.8324 0.37426,1.90166 -0.0902,0.80022 -0.56363,2.05884 -1.05207,2.79693 -0.48845,0.73809 -1.51596,1.75749 -2.28336,2.26533 -1.08334,0.71692 -1.89751,0.95173 -3.64169,1.05028 -1.54473,0.0873 -2.65068,-0.0419 -3.54063,-0.41383 -0.71182,-0.2974 -1.35165,-0.54075 -1.42185,-0.54075 -0.0702,0 -0.12763,0.22265 -0.12763,0.49476 0,0.27212 -0.294,0.6521 -0.65332,0.84441 -0.35933,0.1923 -0.79669,0.34964 -0.97193,0.34964 -0.17523,0 -0.48567,-0.2013 -0.68985,-0.44733 z m -66.726515,-2.22094 c -0.373982,-0.41325 -0.703269,-1.40515 -0.799725,-2.40899 -0.139913,-1.45611 -0.305419,-1.77963 -1.12802,-2.20501 -0.538959,-0.27871 -1.063125,-0.89329 -1.188741,-1.39378 -0.173355,-0.6907 -0.05017,-1.03657 0.539168,-1.51379 0.420123,-0.34019 1.089005,-0.61629 1.486405,-0.61354 0.397399,0.003 1.708192,0.2373 2.912872,0.52123 1.20468,0.28393 3.262018,1.03169 4.571863,1.6617 1.309844,0.63001 2.667083,1.461 3.016087,1.84664 0.623008,0.68843 0.62023,0.71642 -0.152681,1.53915 -0.432979,0.46089 -1.96157,1.29085 -3.39687,1.84435 -1.4353,0.55351 -3.198005,1.10046 -3.91712,1.21546 -1.061019,0.16967 -1.427327,0.0767 -1.943238,-0.49342 z m 97.075815,-6.11353 c -0.49539,-0.49538 -0.67553,-1.12587 -0.67553,-2.36433 0,-1.68881 0,-1.68881 -1.6888,-1.68881 -1.23846,0 -1.86895,-0.18014 -2.36433,-0.67553 -0.37153,-0.37153 -0.67552,-1.10109 -0.67552,-1.62125 0,-0.52015 0.18239,-1.12812 0.40531,-1.35104 0.22292,-0.22292 1.28687,-0.40531 2.36433,-0.40531 1.95901,0 1.95901,0 1.95901,-1.61366 0,-0.88751 0.22452,-1.93419 0.49892,-2.32595 0.45097,-0.64385 0.95113,-0.73572 5.20444,-0.95594 3.26556,-0.16908 5.0676,-0.12415 5.88869,0.14684 0.65074,0.21476 1.29492,0.64912 1.43151,0.96522 0.1366,0.31611 0.31973,2.95092 0.40698,5.85514 0.15133,5.03708 0.1257,5.31333 -0.55625,5.99527 -0.66841,0.66842 -1.06605,0.71487 -6.11905,0.71487 -4.95383,0 -5.46048,-0.0563 -6.07971,-0.67552 z m 8.7818,-6.24859 c 0,-2.87097 0,-2.87097 -2.70209,-2.87097 -2.70209,0 -2.70209,0 -2.70209,2.87097 0,2.87098 0,2.87098 2.70209,2.87098 2.70209,0 2.70209,0 2.70209,-2.87098 z m -39.839,6.26616 c -0.29437,-0.18624 -0.47587,-0.80085 -0.45491,-1.5405 0.0203,-0.71539 0.4412,-1.88783 1.00537,-2.80033 0.57628,-0.93212 1.62914,-1.97694 2.59206,-2.57226 1.16539,-0.72051 2.17081,-1.04228 3.57384,-1.14377 1.46669,-0.10608 2.34227,0.0313 3.52034,0.55243 1.52594,0.675 1.5681,0.67632 1.5681,0.049 0,-0.35456 0.3225,-0.81725 0.71667,-1.0282 0.58485,-0.313 0.82629,-0.26859 1.31259,0.24144 0.36521,0.38303 0.68106,1.428 0.81587,2.69925 0.17643,1.66377 0.11241,2.1818 -0.32343,2.61766 -0.40156,0.40155 -1.1966,0.54338 -3.04604,0.54338 -2.4269,0 -2.50946,-0.0272 -2.72777,-0.89696 -0.16459,-0.65579 -0.062,-1.01619 0.38132,-1.34039 0.565,-0.41314 0.54382,-0.46726 -0.30994,-0.79186 -0.50401,-0.19162 -1.17248,-0.34507 -1.48548,-0.34099 -0.313,0.004 -1.18902,0.28898 -1.94669,0.63309 -0.75768,0.34412 -1.70712,1.0446 -2.10986,1.5566 -0.40276,0.51202 -0.88643,1.50343 -1.07485,2.20315 -0.18841,0.69973 -0.58134,1.36385 -0.87318,1.47584 -0.29182,0.11198 -0.55616,0.20128 -0.58741,0.19844 -0.0312,-0.003 -0.27722,-0.14461 -0.5466,-0.31503 z m -56.254139,-2.45068 c -1.48615,-0.76233 -3.614047,-1.66553 -4.728661,-2.00711 -1.114613,-0.34157 -3.00455,-0.62221 -4.19986,-0.62362 -1.19531,-9.6e-4 -3.063154,0.2471 -4.150763,0.55226 -1.52778,0.42868 -2.164379,0.4697 -2.799373,0.18037 -0.452045,-0.20596 -0.919062,-0.76161 -1.037816,-1.23475 -0.127981,-0.50992 -0.03862,-1.07391 0.219403,-1.3848 0.239426,-0.2885 0.82637,-0.72201 1.304322,-0.96336 0.477952,-0.24135 1.911344,-0.63161 3.185316,-0.86725 1.391916,-0.25744 3.239354,-0.34264 4.629233,-0.21346 1.272107,0.11822 3.573606,0.67246 5.114442,1.23162 1.540835,0.55917 3.941464,1.66436 5.33473,2.45598 2.017061,1.14605 2.554152,1.61825 2.635988,2.31752 0.05654,0.48311 -0.144259,1.12525 -0.446327,1.42732 -0.302008,0.30201 -0.956229,0.5415 -1.453824,0.53222 -0.497595,-0.01 -2.120659,-0.64061 -3.60681,-1.40294 z M 113.82865,109.9373 c -0.44669,-0.63775 -0.52579,-2.23208 -0.52579,-10.598126 0,-8.75442 0.0621,-9.898905 0.55942,-10.311011 0.42794,-0.35461 1.97315,-0.463559 6.57457,-0.463559 5.32033,0 6.08478,0.06956 6.61801,0.602181 0.50335,0.502778 0.62124,1.325175 0.71415,4.981982 0.11128,4.379801 0.11128,4.379801 29.37371,4.379801 29.26243,0 29.26243,0 27.50072,-1.78387 -1.34071,-1.357571 -1.76171,-2.027513 -1.76171,-2.80342 0,-0.560753 0.1824,-1.201942 0.40532,-1.424865 0.22291,-0.222923 0.8289,-0.405314 1.34664,-0.405314 0.72436,0 1.80722,0.797963 4.69811,3.462055 2.06623,1.904131 3.88836,3.804039 4.04918,4.222019 0.16563,0.430497 0.1639,1.089427 -0.004,1.519927 -0.16304,0.41798 -1.96046,2.39388 -3.99431,4.3909 -2.03384,1.99701 -3.95551,3.63093 -4.27036,3.63093 -0.31486,0 -0.94555,-0.37307 -1.40153,-0.82905 -0.45598,-0.45598 -0.82904,-1.07523 -0.82904,-1.37612 0,-0.30088 0.8599,-1.44859 1.91088,-2.55044 1.9109,-2.00337 1.9109,-2.00337 -27.44311,-1.91705 -29.35402,0.0863 -29.35402,0.0863 -29.5229,3.73061 -0.12675,2.73526 -0.29526,3.72393 -0.67552,3.96353 -0.27866,0.17557 -3.27189,0.32155 -6.65163,0.3244 -5.97004,0.005 -6.15997,-0.0162 -6.6708,-0.74551 z m 10.21517,-8.87552 c 0.0558,-3.158071 0.009,-6.387915 -0.10514,-7.177433 -0.2066,-1.435486 -0.2066,-1.435486 -3.61666,-1.435486 -3.41005,0 -3.41005,0 -3.20344,6.931442 0.11364,3.812287 0.30194,7.085667 0.41845,7.274177 0.12572,0.20342 1.47062,0.30341 3.30857,0.24599 3.09675,-0.0968 3.09675,-0.0968 3.19822,-5.83869 z"
       id="path1" /></g></svg>
